<mxfile host="app.diagrams.net" modified="2022-04-10T10:32:54.744Z" agent="5.0 (Windows NT 10.0; Win64; x64) AppleWebKit/537.36 (KHTML, like Gecko) Chrome/100.0.4896.75 Safari/537.36" etag="vYPbm5ka2P1V8dhhH7Eg" version="17.4.2" type="github">
  <diagram id="prtHgNgQTEPvFCAcTncT" name="Page-1">
    <mxGraphModel dx="693" dy="342" grid="1" gridSize="10" guides="1" tooltips="1" connect="1" arrows="1" fold="1" page="1" pageScale="1" pageWidth="827" pageHeight="1169" math="0" shadow="0">
      <root>
        <mxCell id="0" />
        <mxCell id="1" parent="0" />
        <mxCell id="dNxyNK7c78bLwvsdeMH5-11" value="wedding" style="swimlane;html=1;startSize=20;horizontal=1;containerType=tree;glass=0;" parent="1" vertex="1">
          <mxGeometry x="40" y="80" width="710" height="330" as="geometry" />
        </mxCell>
        <mxCell id="gjVOQ9lfMQcdpirPAf6n-1" value="" style="shape=ext;double=1;rounded=1;whiteSpace=wrap;html=1;" vertex="1" parent="dNxyNK7c78bLwvsdeMH5-11">
          <mxGeometry x="30" y="30" width="120" height="250" as="geometry" />
        </mxCell>
        <mxCell id="gjVOQ9lfMQcdpirPAf6n-3" value="User" style="rounded=1;whiteSpace=wrap;html=1;fillColor=#f8cecc;strokeColor=#b85450;" vertex="1" parent="dNxyNK7c78bLwvsdeMH5-11">
          <mxGeometry x="30" y="30" width="120" height="30" as="geometry" />
        </mxCell>
        <mxCell id="gjVOQ9lfMQcdpirPAf6n-4" value="first name" style="rounded=1;whiteSpace=wrap;html=1;" vertex="1" parent="dNxyNK7c78bLwvsdeMH5-11">
          <mxGeometry x="30" y="60" width="120" height="20" as="geometry" />
        </mxCell>
        <mxCell id="gjVOQ9lfMQcdpirPAf6n-5" value="last name" style="rounded=1;whiteSpace=wrap;html=1;" vertex="1" parent="dNxyNK7c78bLwvsdeMH5-11">
          <mxGeometry x="30" y="80" width="120" height="20" as="geometry" />
        </mxCell>
        <mxCell id="gjVOQ9lfMQcdpirPAf6n-7" value="&amp;nbsp;email&lt;span style=&quot;white-space: pre&quot;&gt;	&lt;/span&gt;" style="rounded=1;whiteSpace=wrap;html=1;" vertex="1" parent="dNxyNK7c78bLwvsdeMH5-11">
          <mxGeometry x="30" y="120" width="120" height="20" as="geometry" />
        </mxCell>
        <mxCell id="gjVOQ9lfMQcdpirPAf6n-8" value="date" style="rounded=1;whiteSpace=wrap;html=1;" vertex="1" parent="dNxyNK7c78bLwvsdeMH5-11">
          <mxGeometry x="30" y="140" width="120" height="20" as="geometry" />
        </mxCell>
        <mxCell id="gjVOQ9lfMQcdpirPAf6n-9" value="address" style="rounded=1;whiteSpace=wrap;html=1;" vertex="1" parent="dNxyNK7c78bLwvsdeMH5-11">
          <mxGeometry x="30" y="160" width="120" height="20" as="geometry" />
        </mxCell>
        <mxCell id="gjVOQ9lfMQcdpirPAf6n-10" value="avatar" style="rounded=1;whiteSpace=wrap;html=1;" vertex="1" parent="dNxyNK7c78bLwvsdeMH5-11">
          <mxGeometry x="30" y="180" width="120" height="20" as="geometry" />
        </mxCell>
        <mxCell id="gjVOQ9lfMQcdpirPAf6n-11" value="location" style="rounded=1;whiteSpace=wrap;html=1;" vertex="1" parent="dNxyNK7c78bLwvsdeMH5-11">
          <mxGeometry x="30" y="200" width="120" height="20" as="geometry" />
        </mxCell>
        <mxCell id="gjVOQ9lfMQcdpirPAf6n-12" value="" style="shape=ext;double=1;rounded=1;whiteSpace=wrap;html=1;" vertex="1" parent="dNxyNK7c78bLwvsdeMH5-11">
          <mxGeometry x="160" y="30" width="120" height="240" as="geometry" />
        </mxCell>
        <mxCell id="gjVOQ9lfMQcdpirPAf6n-13" value="first name" style="rounded=1;whiteSpace=wrap;html=1;" vertex="1" parent="dNxyNK7c78bLwvsdeMH5-11">
          <mxGeometry x="160" y="60" width="120" height="20" as="geometry" />
        </mxCell>
        <mxCell id="gjVOQ9lfMQcdpirPAf6n-14" value="last name" style="rounded=1;whiteSpace=wrap;html=1;" vertex="1" parent="dNxyNK7c78bLwvsdeMH5-11">
          <mxGeometry x="160" y="80" width="120" height="20" as="geometry" />
        </mxCell>
        <mxCell id="gjVOQ9lfMQcdpirPAf6n-15" value="giới thiệu" style="rounded=1;whiteSpace=wrap;html=1;" vertex="1" parent="dNxyNK7c78bLwvsdeMH5-11">
          <mxGeometry x="160" y="100" width="120" height="20" as="geometry" />
        </mxCell>
        <mxCell id="gjVOQ9lfMQcdpirPAf6n-16" value="facebook" style="rounded=1;whiteSpace=wrap;html=1;" vertex="1" parent="dNxyNK7c78bLwvsdeMH5-11">
          <mxGeometry x="160" y="120" width="120" height="20" as="geometry" />
        </mxCell>
        <mxCell id="gjVOQ9lfMQcdpirPAf6n-17" value="date" style="rounded=1;whiteSpace=wrap;html=1;" vertex="1" parent="dNxyNK7c78bLwvsdeMH5-11">
          <mxGeometry x="160" y="140" width="120" height="20" as="geometry" />
        </mxCell>
        <mxCell id="gjVOQ9lfMQcdpirPAf6n-18" value="address" style="rounded=1;whiteSpace=wrap;html=1;" vertex="1" parent="dNxyNK7c78bLwvsdeMH5-11">
          <mxGeometry x="160" y="160" width="120" height="20" as="geometry" />
        </mxCell>
        <mxCell id="gjVOQ9lfMQcdpirPAf6n-19" value="avatar" style="rounded=1;whiteSpace=wrap;html=1;" vertex="1" parent="dNxyNK7c78bLwvsdeMH5-11">
          <mxGeometry x="160" y="180" width="120" height="20" as="geometry" />
        </mxCell>
        <mxCell id="gjVOQ9lfMQcdpirPAf6n-20" value="location" style="rounded=1;whiteSpace=wrap;html=1;" vertex="1" parent="dNxyNK7c78bLwvsdeMH5-11">
          <mxGeometry x="160" y="200" width="120" height="20" as="geometry" />
        </mxCell>
        <mxCell id="gjVOQ9lfMQcdpirPAf6n-23" value="password" style="rounded=1;whiteSpace=wrap;html=1;" vertex="1" parent="dNxyNK7c78bLwvsdeMH5-11">
          <mxGeometry x="30" y="220" width="120" height="20" as="geometry" />
        </mxCell>
        <mxCell id="gjVOQ9lfMQcdpirPAf6n-24" value="datawedding" style="rounded=1;whiteSpace=wrap;html=1;" vertex="1" parent="dNxyNK7c78bLwvsdeMH5-11">
          <mxGeometry x="30" y="240" width="120" height="20" as="geometry" />
        </mxCell>
        <mxCell id="gjVOQ9lfMQcdpirPAf6n-25" value="role" style="rounded=1;whiteSpace=wrap;html=1;" vertex="1" parent="dNxyNK7c78bLwvsdeMH5-11">
          <mxGeometry x="30" y="260" width="120" height="20" as="geometry" />
        </mxCell>
        <mxCell id="gjVOQ9lfMQcdpirPAf6n-26" value="Cô dâu chú rể" style="rounded=1;whiteSpace=wrap;html=1;fillColor=#f8cecc;strokeColor=#b85450;" vertex="1" parent="dNxyNK7c78bLwvsdeMH5-11">
          <mxGeometry x="160" y="30" width="120" height="30" as="geometry" />
        </mxCell>
      </root>
    </mxGraphModel>
  </diagram>
</mxfile>
